<?xml version="1.0" encoding="utf-8"?><svg xmlns="http://www.w3.org/2000/svg" xmlns:xlink="http://www.w3.org/1999/xlink"><symbol viewBox="0 0 870 870" id="cart" xmlns="http://www.w3.org/2000/svg"><path d="M22 583C9 424-1 287 0 278c0-16 12-18 103-18h103l11-67C239 70 317 0 434 0c77 0 137 30 180 89 24 34 31 54 34 106l4 65h109c106 0 109 1 109 23 0 35-41 539-46 565l-4 22H45L22 583zm318-153v-40H180v80h160v-40zm350 0v-40H530v80h160v-40zM560 227c0-46-31-97-71-119-83-46-179 20-179 122v30h250v-33z"/></symbol><symbol viewBox="0 0 960 1440" id="crown" xmlns="http://www.w3.org/2000/svg"><path d="M0 1320v-120h720v-120H68l-34-34-34-34V548l34-34 34-34h892v240H240v120h652l34 34 34 34v464l-34 34-34 34H0v-120zm34-994L0 292V0h186l29 60c24 51 33 60 55 60s31-9 55-60l29-60h252l29 60c24 51 33 60 55 60s31-9 55-60l29-60h186v292l-34 34-34 34H68l-34-34z"/></symbol><symbol viewBox="0 0 1200 840" id="delivery" xmlns="http://www.w3.org/2000/svg"><path d="M200 822c-19-9-46-34-59-55-24-36-26-37-83-37H0V576c0-195 11-226 97-270 18-9 45-16 61-16 51 0 64-19 71-101C241 50 294 0 426 0h64v410h710v320h-177l-24 37c-33 51-79 72-159 72s-126-21-159-72l-24-37H483l-24 37c-33 51-79 72-159 72-41 0-78-6-100-17zm124-125c12-9 17-23 14-42-3-27-7-30-38-30s-35 3-38 30c-3 26 17 55 38 55 3 0 14-6 24-13zm540 0c12-9 17-23 14-42-3-27-7-30-38-30s-35 3-38 30c-3 26 17 55 38 55 3 0 14-6 24-13z"/><path d="M597 303c-4-3-7-73-7-155V0h610v310H902c-164 0-302-3-305-7z"/></symbol><symbol viewBox="0 0 1200 1200" id="exclusive" xmlns="http://www.w3.org/2000/svg"><path d="M0 895V590l273 2 272 3 3 303 2 302H0V895zm652 3l3-303 273-3 272-2v610H650l2-302zM0 360V230h110v-50c0-28 7-65 16-83 42-83 78-97 238-97 138 1 177 14 211 67 11 18 22 32 25 32s14-14 25-32c34-53 73-66 211-67 160 0 196 14 238 97 9 18 16 55 16 83v50h110v260H0V360zm467-167c-9-50-18-56-90-61-84-5-117 8-117 47 0 42 21 50 124 51h89l-6-37zm454 27c12-7 19-21 19-41 0-39-33-52-117-47-72 5-81 11-90 61l-6 37h87c48 0 96-5 107-10z"/></symbol><symbol viewBox="0 0 370 770" id="fb" xmlns="http://www.w3.org/2000/svg"><path d="M80 570V370H0V250h80v-70C80 48 123 0 241 0c37 0 81 3 99 6 32 7 32 7 25 53-11 79-11 79-58 74-57-7-77 13-77 73v44h66c56 0 65 2 60 16-3 9-6 36-6 60v44H230v400H80V570z"/></symbol><symbol viewBox="0 0 610 600" id="loc" xmlns="http://www.w3.org/2000/svg"><path d="M47 465c43-128 46-135 71-135 19 0 32 9 44 29 15 27 15 29-1 34-10 2-24 27-35 63-10 32-21 65-23 72-4 9 41 12 205 12h211l-26-75c-15-47-30-75-39-75-12 0-12-4 1-30 12-22 23-30 43-30 26 0 29 5 70 128 23 70 42 131 42 135s-137 7-304 7H1l46-135z"/><path d="M250 433c-81-111-124-200-124-258C126 74 191 8 296 2c54-4 70-1 106 21 79 46 109 143 72 233-28 68-148 244-166 244-5 0-31-30-58-67zm80-253c0-21-33-29-45-10-9 15 4 30 26 30 12 0 19-7 19-20z"/></symbol><symbol viewBox="0 0 1200 1200" id="lowest-price" xmlns="http://www.w3.org/2000/svg"><path d="M446 1184C249 1136 68 956 15 754c-19-75-19-233 0-308C68 242 249 63 451 15c82-19 216-19 298 0 208 50 398 243 441 452 19 89 8 264-20 338-72 188-236 336-421 380-79 18-225 18-303-1zm214-262c0-32 5-41 27-53 14-8 39-32 55-53 23-32 28-49 28-96 0-93-60-160-156-174-60-8-74-20-74-65 0-46 14-61 60-61 40 0 60 14 60 42 0 15 9 18 55 18 54 0 55-1 55-28 0-35-46-101-83-121-22-12-27-21-27-53v-38H540v38c0 32-5 41-27 53-14 8-39 32-55 53-23 32-28 49-28 96 0 93 60 160 157 175 61 9 73 19 73 64 0 46-14 61-60 61-40 0-60-14-60-42 0-15-9-18-55-18-54 0-55 1-55 28 0 35 46 101 83 121 22 12 27 21 27 53v38h120v-38z"/></symbol><symbol viewBox="0 0 600 420" id="mail" xmlns="http://www.w3.org/2000/svg"><path d="M0 210V0h600v420H0V210zm163 95c33-30 66-55 72-55 7 0 20 9 30 20 23 25 47 25 70 0 10-11 23-20 30-20 6 0 39 25 72 55 59 53 103 70 103 41 0-8-30-42-68-75l-67-61 68-61c37-33 67-67 67-75 0-34-47-9-136 71-52 47-98 85-104 85s-52-38-104-85C107 65 60 40 60 74c0 8 30 42 68 75l67 61-67 61c-38 33-68 67-68 75 0 29 44 12 103-41z"/></symbol><symbol viewBox="0 0 1200 1200" id="money-back" xmlns="http://www.w3.org/2000/svg"><path d="M0 780V360h1200v240h-82c-147 1-198 20-245 90-17 24-23 47-23 87 0 129 80 183 270 183h80v240H0V780z"/><path d="M978 829c-21-12-25-78-6-97 8-8 49-12 120-12h108v120h-102c-57 0-111-5-120-11zM202 223c8-10 52-64 98-121C378 6 385 0 419 0s43 7 107 79c38 44 72 80 76 80 3 1 31-22 61-49 82-75 98-72 211 40l91 90H576c-370 0-388-1-374-17z"/></symbol><symbol viewBox="0 0 600 600" id="phone" xmlns="http://www.w3.org/2000/svg"><path d="M79 585c-14-8-33-25-41-38-35-52-49-276-27-406C31 27 64 0 183 0c94 0 102 8 102 105 0 81-18 115-62 115-22 0-23 3-23 80s1 80 23 80c44 0 62 34 62 115 0 98-7 105-104 105-46-1-86-6-102-15zm245-19c-14-37 1-61 48-76 64-21 106-54 129-103 51-114-13-256-125-274-44-7-58-23-54-60 2-23 8-29 35-31 77-8 197 81 228 167 19 56 19 166 0 222-20 57-77 115-140 145-57 27-113 31-121 10z"/><path d="M324 447c-10-27 0-61 22-72 42-21 54-37 54-75s-12-54-54-75c-15-8-21-20-21-45 0-34 1-35 39-34 31 1 46 10 80 43 40 41 41 43 41 111s-1 71-40 110c-46 46-110 65-121 37z"/></symbol><symbol viewBox="0 0 780 770" id="pint" xmlns="http://www.w3.org/2000/svg"><path d="M293 763c-27-5-27-6-9-41 7-15 22-56 31-92 23-84 29-89 61-59 36 34 108 32 162-4 96-63 123-249 50-343-50-62-181-92-280-62-55 16-123 79-144 133-28 75-4 187 44 203 17 5 15-30-3-64-29-57-10-132 49-190 91-92 245-78 299 26 24 45 17 150-12 208-40 79-114 107-159 59-26-27-27-56-7-123 21-68 19-101-5-114-17-9-25-6-46 15-23 23-26 33-22 83 2 47-32 249-58 340-6 21-100-35-146-88-55-62-74-103-87-187-13-85 0-207 29-262C106 72 233 0 395 0c149 0 249 54 335 179 63 92 63 320 0 412-61 89-131 143-215 165-47 13-172 17-222 7z"/></symbol><symbol viewBox="0 0 1000 1000" id="quote" xmlns="http://www.w3.org/2000/svg"><path d="M755 900L625 800H300v-42c1-39 5-46 45-75l44-33h461V300h150v500H900v100c0 55-3 100-7 99-5 0-66-45-138-99z"/><path d="M100 650V550H0V0h750v550H377L244 650c-74 55-136 100-139 100s-5-45-5-100z"/></symbol><symbol viewBox="0 0 1210 1200" id="shipping" xmlns="http://www.w3.org/2000/svg"><path d="M10 856c0-189-3-351-6-360-5-14 17-16 215-16h221v290l80-50c44-27 84-50 90-50s46 23 90 50l80 50V480h430v720H10V856zm10-503c0-5 12-86 27-180L74 0h366v360H230c-116 0-210-3-210-7zm530-173V0h120v360H550V180zm230 0V0h366l22 143c12 78 25 159 28 180l7 37H780V180z"/></symbol><symbol viewBox="0 0 810 770" id="star" xmlns="http://www.w3.org/2000/svg"><path d="M154 743c3-16 8-76 12-134l6-106-87-102C37 345-1 297 1 295s56-15 119-30 122-31 130-36c9-4 46-57 84-118C371 50 403 0 405 0s34 50 71 110c37 61 74 115 83 119 9 5 68 21 131 36s117 29 119 31-36 49-84 105l-88 101 10 131c6 73 9 134 7 136s-56-18-121-44c-64-27-124-48-132-48-9 1-65 22-124 47-60 25-113 46-119 46-5 0-7-12-4-27z"/></symbol><symbol viewBox="0 0 810 770" id="star-empty" xmlns="http://www.w3.org/2000/svg"><path d="M154 743c3-16 8-76 12-134l6-106-87-102C37 345-1 297 1 295s56-15 119-30 122-31 130-36c9-4 46-57 84-118C371 50 403 0 405 0s34 50 71 110c37 61 74 115 83 119 9 5 68 21 131 36s117 29 119 31-36 49-84 105l-88 101 10 131c6 73 9 134 7 136s-56-18-121-44c-64-27-124-48-132-48-9 1-65 22-124 47-60 25-113 46-119 46-5 0-7-12-4-27zm359-59l109 45-7-119-7-120 76-89 76-89-116-28-115-28-62-102-63-101-61 101-62 102-115 28-116 28 76 89 76 89-7 119-7 120 108-45 109-45 108 45z"/></symbol><symbol viewBox="0 0 1190 1200" id="support" xmlns="http://www.w3.org/2000/svg"><path d="M635 1181c-117-34-231-106-353-225-99-96-167-185-215-281C22 585 8 531 7 450c0-86 21-126 120-221 124-121 161-118 296 20 87 88 87 89 87 140 0 46-4 56-41 96-49 53-48 68 8 142 47 61 100 108 150 133l38 18 47-44c40-37 53-44 88-44 55 0 73 10 153 89 82 79 97 105 97 167 0 47-2 50-92 140-100 99-130 115-218 113-25 0-72-8-105-18zm415-456l-43-44 22-46c68-145 39-299-78-408-74-69-127-90-231-91-73-1-93 3-144 27l-60 28-43-43c-50-49-48-55 41-97 180-86 392-51 535 89 104 101 147 218 139 375-4 77-10 104-38 164-18 39-38 75-45 81-8 7-24-4-55-35z"/><path d="M650 395V240h130v180h120v130H650V395z"/></symbol><symbol viewBox="0 0 780 550" id="tube" xmlns="http://www.w3.org/2000/svg"><path d="M53 531C8 503-3 443 2 245 8-5-9 6 365 2c322-3 370 3 395 53 11 22 16 74 18 205 4 202-3 241-51 270-30 19-52 20-337 20-284 0-307-1-337-19zm376-204l83-49-93-55c-52-30-100-57-106-60-10-4-13 23-13 116v122l23-12c12-7 60-35 106-62z"/></symbol><symbol viewBox="0 0 790 640" id="twi" xmlns="http://www.w3.org/2000/svg"><path d="M135 626C58 613 0 587 0 566c0-9 19-15 57-19 32-2 77-13 101-22l42-17-38-19c-53-27-105-100-81-115 7-4-2-19-21-39-37-38-53-110-27-121 13-5 13-9 1-32-19-36-18-112 2-140l15-22 52 43c70 58 95 73 166 97 87 29 101 27 101-14 0-37 31-89 73-120 40-30 140-34 190-7 35 18 42 18 79 5 22-8 44-14 49-14 13 0 11 34-3 49-11 11-9 13 10 8 34-8 28 23-12 62-29 28-34 41-39 95-13 134-91 265-204 342-90 62-239 85-378 60z"/></symbol></svg>