<!DOCTYPE svg PUBLIC "-//W3C//DTD SVG 20010904//EN" "http://www.w3.org/TR/2001/REC-SVG-20010904/DTD/svg10.dtd">
<svg version="1.0" xmlns="http://www.w3.org/2000/svg" width="87px" height="87px" viewBox="0 0 870 870" preserveAspectRatio="xMidYMid meet">
<g id="layer1" fill="#ffffff" stroke="none">
 <path d="M22 583 c-13 -159 -23 -296 -22 -305 0 -16 12 -18 103 -18 l103 0 11 -67 c22 -123 100 -193 217 -193 77 0 137 30 180 89 24 34 31 54 34 106 l4 65 109 0 c106 0 109 1 109 23 0 35 -41 539 -46 565 l-4 22 -388 0 -387 0 -23 -287z m318 -153 l0 -40 -80 0 -80 0 0 40 0 40 80 0 80 0 0 -40z m350 0 l0 -40 -80 0 -80 0 0 40 0 40 80 0 80 0 0 -40z m-130 -203 c0 -46 -31 -97 -71 -119 -83 -46 -179 20 -179 122 l0 30 125 0 125 0 0 -33z"/>
 </g>

</svg>