<!DOCTYPE svg PUBLIC "-//W3C//DTD SVG 20010904//EN" "http://www.w3.org/TR/2001/REC-SVG-20010904/DTD/svg10.dtd">
<svg version="1.0" xmlns="http://www.w3.org/2000/svg" width="96px" height="144px" viewBox="0 0 960 1440" preserveAspectRatio="xMidYMid meet">
<g id="layer1" fill="#ffffff" stroke="none">
 <path d="M0 1320 l0 -120 360 0 360 0 0 -60 0 -60 -326 0 -326 0 -34 -34 -34 -34 0 -232 0 -232 34 -34 34 -34 446 0 446 0 0 120 0 120 -360 0 -360 0 0 60 0 60 326 0 326 0 34 34 34 34 0 232 0 232 -34 34 -34 34 -446 0 -446 0 0 -120z"/>
 <path d="M34 326 l-34 -34 0 -146 0 -146 93 0 93 0 29 60 c24 51 33 60 55 60 22 0 31 -9 55 -60 l29 -60 126 0 126 0 29 60 c24 51 33 60 55 60 22 0 31 -9 55 -60 l29 -60 93 0 93 0 0 146 0 146 -34 34 -34 34 -412 0 -412 0 -34 -34z"/>
 </g>

</svg>