<!DOCTYPE svg PUBLIC "-//W3C//DTD SVG 20010904//EN" "http://www.w3.org/TR/2001/REC-SVG-20010904/DTD/svg10.dtd">
<svg version="1.0" xmlns="http://www.w3.org/2000/svg" width="120px" height="84px" viewBox="0 0 1200 840" preserveAspectRatio="xMidYMid meet">
<g id="layer1" fill="#a0a0a0" stroke="none">
 <path d="M200 822 c-19 -9 -46 -34 -59 -55 -24 -36 -26 -37 -83 -37 l-58 0 0 -154 c0 -195 11 -226 97 -270 18 -9 45 -16 61 -16 51 0 64 -19 71 -101 12 -139 65 -189 197 -189 l64 0 0 205 0 205 355 0 355 0 0 160 0 160 -88 0 -89 0 -24 37 c-33 51 -79 72 -159 72 -80 0 -126 -21 -159 -72 l-24 -37 -87 0 -87 0 -24 37 c-33 51 -79 72 -159 72 -41 0 -78 -6 -100 -17z m124 -125 c12 -9 17 -23 14 -42 -3 -27 -7 -30 -38 -30 -31 0 -35 3 -38 30 -3 26 17 55 38 55 3 0 14 -6 24 -13z m540 0 c12 -9 17 -23 14 -42 -3 -27 -7 -30 -38 -30 -31 0 -35 3 -38 30 -3 26 17 55 38 55 3 0 14 -6 24 -13z"/>
 <path d="M597 303 c-4 -3 -7 -73 -7 -155 l0 -148 305 0 305 0 0 155 0 155 -298 0 c-164 0 -302 -3 -305 -7z"/>
 </g>

</svg>