<!DOCTYPE svg PUBLIC "-//W3C//DTD SVG 20010904//EN" "http://www.w3.org/TR/2001/REC-SVG-20010904/DTD/svg10.dtd">
<svg version="1.0" xmlns="http://www.w3.org/2000/svg" width="120px" height="120px" viewBox="0 0 1200 1200" preserveAspectRatio="xMidYMid meet">
<g id="layer1" fill="#a0a0a0" stroke="none">
 <path d="M0 895 l0 -305 273 2 272 3 3 303 2 302 -275 0 -275 0 0 -305z"/>
 <path d="M652 898 l3 -303 273 -3 272 -2 0 305 0 305 -275 0 -275 0 2 -302z"/>
 <path d="M0 360 l0 -130 55 0 55 0 0 -50 c0 -28 7 -65 16 -83 42 -83 78 -97 238 -97 138 1 177 14 211 67 11 18 22 32 25 32 3 0 14 -14 25 -32 34 -53 73 -66 211 -67 160 0 196 14 238 97 9 18 16 55 16 83 l0 50 55 0 55 0 0 130 0 130 -600 0 -600 0 0 -130z m467 -167 c-9 -50 -18 -56 -90 -61 -84 -5 -117 8 -117 47 0 42 21 50 124 51 l89 0 -6 -37z m454 27 c12 -7 19 -21 19 -41 0 -39 -33 -52 -117 -47 -72 5 -81 11 -90 61 l-6 37 87 0 c48 0 96 -5 107 -10z"/>
 </g>

</svg>