<!DOCTYPE svg PUBLIC "-//W3C//DTD SVG 20010904//EN" "http://www.w3.org/TR/2001/REC-SVG-20010904/DTD/svg10.dtd">
<svg version="1.0" xmlns="http://www.w3.org/2000/svg" width="37px" height="77px" viewBox="0 0 370 770" preserveAspectRatio="xMidYMid meet">
<g id="layer1" fill="#ffffff" stroke="none">
 <path d="M80 570 l0 -200 -40 0 -40 0 0 -60 0 -60 40 0 40 0 0 -70 c0 -132 43 -180 161 -180 37 0 81 3 99 6 32 7 32 7 25 53 -11 79 -11 79 -58 74 -57 -7 -77 13 -77 73 l0 44 66 0 c56 0 65 2 60 16 -3 9 -6 36 -6 60 l0 44 -60 0 -60 0 0 200 0 200 -75 0 -75 0 0 -200z"/>
 </g>

</svg>