<!DOCTYPE svg PUBLIC "-//W3C//DTD SVG 20010904//EN" "http://www.w3.org/TR/2001/REC-SVG-20010904/DTD/svg10.dtd">
<svg version="1.0" xmlns="http://www.w3.org/2000/svg" width="61px" height="60px" viewBox="0 0 610 600" preserveAspectRatio="xMidYMid meet">
<g id="layer1" fill="#ffffff" stroke="none">
 <path d="M47 465 c43 -128 46 -135 71 -135 19 0 32 9 44 29 15 27 15 29 -1 34 -10 2 -24 27 -35 63 -10 32 -21 65 -23 72 -4 9 41 12 205 12 l211 0 -26 -75 c-15 -47 -30 -75 -39 -75 -12 0 -12 -4 1 -30 12 -22 23 -30 43 -30 26 0 29 5 70 128 23 70 42 131 42 135 0 4 -137 7 -304 7 l-305 0 46 -135z"/>
 <path d="M250 433 c-81 -111 -124 -200 -124 -258 0 -101 65 -167 170 -173 54 -4 70 -1 106 21 79 46 109 143 72 233 -28 68 -148 244 -166 244 -5 0 -31 -30 -58 -67z m80 -253 c0 -21 -33 -29 -45 -10 -9 15 4 30 26 30 12 0 19 -7 19 -20z"/>
 </g>

</svg>