<!DOCTYPE svg PUBLIC "-//W3C//DTD SVG 20010904//EN" "http://www.w3.org/TR/2001/REC-SVG-20010904/DTD/svg10.dtd">
<svg version="1.0" xmlns="http://www.w3.org/2000/svg" width="546px" height="72px" viewBox="0 0 5460 720" preserveAspectRatio="xMidYMid meet">
<g id="layer1" fill="#ff7270" stroke="none">
 <path d="M3360 480 l0 -240 60 0 60 0 0 90 0 90 120 0 120 0 0 -90 0 -90 60 0 60 0 0 240 0 240 -60 0 -60 0 0 -90 0 -90 -120 0 -120 0 0 90 0 90 -60 0 -60 0 0 -240z"/>
 <path d="M3912 708 c-17 -17 -17 -439 0 -456 17 -17 439 -17 456 0 17 17 17 439 0 456 -17 17 -439 17 -456 0z m348 -228 l0 -120 -120 0 -120 0 0 120 0 120 120 0 120 0 0 -120z"/>
 <path d="M4452 708 c-9 -9 -12 -76 -12 -240 l0 -228 60 0 60 0 0 180 0 180 180 0 180 0 0 48 c0 26 -5 53 -12 60 -17 17 -439 17 -456 0z"/>
 <path d="M4980 480 l0 -240 206 0 206 0 34 34 34 34 0 172 0 172 -34 34 -34 34 -206 0 -206 0 0 -240z m360 0 l0 -120 -120 0 -120 0 0 120 0 120 120 0 120 0 0 -120z"/>
 <path d="M12 168 c-7 -7 -12 -43 -12 -90 l0 -78 49 0 c45 0 50 2 61 30 7 17 18 30 25 30 7 0 18 -13 25 -30 12 -29 14 -30 80 -30 66 0 68 1 80 30 16 38 34 38 50 0 11 -28 16 -30 61 -30 l49 0 0 78 c0 47 -5 83 -12 90 -17 17 -439 17 -456 0z"/>
 </g>
<g id="layer2" fill="#ffffff" stroke="none">
 <path d="M0 660 l0 -60 180 0 180 0 0 -30 0 -30 -168 0 c-117 0 -172 -4 -180 -12 -17 -17 -17 -259 0 -276 9 -9 76 -12 240 -12 l228 0 0 60 0 60 -180 0 -180 0 0 30 0 30 168 0 c117 0 172 4 180 12 17 17 17 259 0 276 -9 9 -76 12 -240 12 l-228 0 0 -60z"/>
 <path d="M540 480 l0 -240 228 0 c164 0 231 3 240 12 17 17 17 259 0 276 -8 8 -63 12 -180 12 l-168 0 0 90 0 90 -60 0 -60 0 0 -240z m360 -90 l0 -30 -120 0 -120 0 0 30 0 30 120 0 120 0 0 -30z"/>
 <path d="M1092 708 c-17 -17 -17 -439 0 -456 17 -17 439 -17 456 0 17 17 17 439 0 456 -17 17 -439 17 -456 0z m348 -228 l0 -120 -120 0 -120 0 0 120 0 120 120 0 120 0 0 -120z"/>
 <path d="M1620 480 l0 -240 228 0 c164 0 231 3 240 12 17 17 17 262 -1 276 -7 6 -31 12 -55 14 l-42 3 55 82 c30 45 55 85 55 88 0 3 -35 5 -79 5 l-78 0 -59 -90 c-59 -90 -59 -90 -101 -90 l-43 0 0 90 0 90 -60 0 -60 0 0 -240z m360 -90 l0 -30 -120 0 -120 0 0 30 0 30 120 0 120 0 0 -30z"/>
 <path d="M2400 540 l0 -180 -108 0 c-71 0 -112 -4 -120 -12 -7 -7 -12 -34 -12 -60 l0 -48 288 0 c211 0 291 3 300 12 7 7 12 34 12 60 l0 48 -120 0 -120 0 0 180 0 180 -60 0 -60 0 0 -180z"/>
 <path d="M2820 660 l0 -60 180 0 180 0 0 -30 0 -30 -168 0 c-117 0 -172 -4 -180 -12 -17 -17 -17 -259 0 -276 9 -9 76 -12 240 -12 l228 0 0 60 0 60 -180 0 -180 0 0 30 0 30 168 0 c117 0 172 4 180 12 17 17 17 259 0 276 -9 9 -76 12 -240 12 l-228 0 0 -60z"/>
 </g>

</svg>