<!DOCTYPE svg PUBLIC "-//W3C//DTD SVG 20010904//EN" "http://www.w3.org/TR/2001/REC-SVG-20010904/DTD/svg10.dtd">
<svg version="1.0" xmlns="http://www.w3.org/2000/svg" width="120px" height="120px" viewBox="0 0 1200 1200" preserveAspectRatio="xMidYMid meet">
<g id="layer1" fill="#a0a0a0" stroke="none">
 <path d="M446 1184 c-197 -48 -378 -228 -431 -430 -19 -75 -19 -233 0 -308 53 -204 234 -383 436 -431 82 -19 216 -19 298 0 208 50 398 243 441 452 19 89 8 264 -20 338 -72 188 -236 336 -421 380 -79 18 -225 18 -303 -1z m214 -262 c0 -32 5 -41 27 -53 14 -8 39 -32 55 -53 23 -32 28 -49 28 -96 0 -93 -60 -160 -156 -174 -60 -8 -74 -20 -74 -65 0 -46 14 -61 60 -61 40 0 60 14 60 42 0 15 9 18 55 18 54 0 55 -1 55 -28 0 -35 -46 -101 -83 -121 -22 -12 -27 -21 -27 -53 l0 -38 -60 0 -60 0 0 38 c0 32 -5 41 -27 53 -14 8 -39 32 -55 53 -23 32 -28 49 -28 96 0 93 60 160 157 175 61 9 73 19 73 64 0 46 -14 61 -60 61 -40 0 -60 -14 -60 -42 0 -15 -9 -18 -55 -18 -54 0 -55 1 -55 28 0 35 46 101 83 121 22 12 27 21 27 53 l0 38 60 0 60 0 0 -38z"/>
 </g>

</svg>