<!DOCTYPE svg PUBLIC "-//W3C//DTD SVG 20010904//EN" "http://www.w3.org/TR/2001/REC-SVG-20010904/DTD/svg10.dtd">
<svg version="1.0" xmlns="http://www.w3.org/2000/svg" width="60px" height="60px" viewBox="0 0 600 600" preserveAspectRatio="xMidYMid meet">
<g id="layer1" fill="#ffffff" stroke="none">
 <path d="M79 585 c-14 -8 -33 -25 -41 -38 -35 -52 -49 -276 -27 -406 20 -114 53 -141 172 -141 94 0 102 8 102 105 0 81 -18 115 -62 115 -22 0 -23 3 -23 80 0 77 1 80 23 80 44 0 62 34 62 115 0 98 -7 105 -104 105 -46 -1 -86 -6 -102 -15z"/>
 <path d="M324 566 c-14 -37 1 -61 48 -76 64 -21 106 -54 129 -103 51 -114 -13 -256 -125 -274 -44 -7 -58 -23 -54 -60 2 -23 8 -29 35 -31 77 -8 197 81 228 167 19 56 19 166 0 222 -20 57 -77 115 -140 145 -57 27 -113 31 -121 10z"/>
 <path d="M324 447 c-10 -27 0 -61 22 -72 42 -21 54 -37 54 -75 0 -38 -12 -54 -54 -75 -15 -8 -21 -20 -21 -45 0 -34 1 -35 39 -34 31 1 46 10 80 43 40 41 41 43 41 111 0 68 -1 71 -40 110 -46 46 -110 65 -121 37z"/>
 </g>

</svg>