<!DOCTYPE svg PUBLIC "-//W3C//DTD SVG 20010904//EN" "http://www.w3.org/TR/2001/REC-SVG-20010904/DTD/svg10.dtd">
<svg version="1.0" xmlns="http://www.w3.org/2000/svg" width="78px" height="77px" viewBox="0 0 780 770" preserveAspectRatio="xMidYMid meet">
<g id="layer1" fill="#ffffff" stroke="none">
 <path d="M293 763 c-27 -5 -27 -6 -9 -41 7 -15 22 -56 31 -92 23 -84 29 -89 61 -59 36 34 108 32 162 -4 96 -63 123 -249 50 -343 -50 -62 -181 -92 -280 -62 -55 16 -123 79 -144 133 -28 75 -4 187 44 203 17 5 15 -30 -3 -64 -29 -57 -10 -132 49 -190 91 -92 245 -78 299 26 24 45 17 150 -12 208 -40 79 -114 107 -159 59 -26 -27 -27 -56 -7 -123 21 -68 19 -101 -5 -114 -17 -9 -25 -6 -46 15 -23 23 -26 33 -22 83 2 47 -32 249 -58 340 -6 21 -100 -35 -146 -88 -55 -62 -74 -103 -87 -187 -13 -85 0 -207 29 -262 66 -129 193 -201 355 -201 149 0 249 54 335 179 63 92 63 320 0 412 -61 89 -131 143 -215 165 -47 13 -172 17 -222 7z"/>
 </g>

</svg>