<!DOCTYPE svg PUBLIC "-//W3C//DTD SVG 20010904//EN" "http://www.w3.org/TR/2001/REC-SVG-20010904/DTD/svg10.dtd">
<svg version="1.0" xmlns="http://www.w3.org/2000/svg" width="81px" height="77px" viewBox="0 0 810 770" preserveAspectRatio="xMidYMid meet">
<g id="layer1" fill="#a0a0a0" stroke="none">
 <path d="M154 743 c3 -16 8 -76 12 -134 l6 -106 -87 -102 c-48 -56 -86 -104 -84 -106 2 -2 56 -15 119 -30 63 -15 122 -31 130 -36 9 -4 46 -57 84 -118 37 -61 69 -111 71 -111 2 0 34 50 71 110 37 61 74 115 83 119 9 5 68 21 131 36 63 15 117 29 119 31 2 2 -36 49 -84 105 l-88 101 10 131 c6 73 9 134 7 136 -2 2 -56 -18 -121 -44 -64 -27 -124 -48 -132 -48 -9 1 -65 22 -124 47 -60 25 -113 46 -119 46 -5 0 -7 -12 -4 -27z"/>
 </g>

</svg>