<!DOCTYPE svg PUBLIC "-//W3C//DTD SVG 20010904//EN" "http://www.w3.org/TR/2001/REC-SVG-20010904/DTD/svg10.dtd">
<svg version="1.0" xmlns="http://www.w3.org/2000/svg" width="119px" height="120px" viewBox="0 0 1190 1200" preserveAspectRatio="xMidYMid meet">
<g id="layer1" fill="#a0a0a0" stroke="none">
 <path d="M635 1181 c-117 -34 -231 -106 -353 -225 -99 -96 -167 -185 -215 -281 -45 -90 -59 -144 -60 -225 0 -86 21 -126 120 -221 124 -121 161 -118 296 20 87 88 87 89 87 140 0 46 -4 56 -41 96 -49 53 -48 68 8 142 47 61 100 108 150 133 l38 18 47 -44 c40 -37 53 -44 88 -44 55 0 73 10 153 89 82 79 97 105 97 167 0 47 -2 50 -92 140 -100 99 -130 115 -218 113 -25 0 -72 -8 -105 -18z"/>
 <path d="M1050 725 l-43 -44 22 -46 c68 -145 39 -299 -78 -408 -74 -69 -127 -90 -231 -91 -73 -1 -93 3 -144 27 l-60 28 -43 -43 c-50 -49 -48 -55 41 -97 180 -86 392 -51 535 89 104 101 147 218 139 375 -4 77 -10 104 -38 164 -18 39 -38 75 -45 81 -8 7 -24 -4 -55 -35z"/>
 <path d="M650 395 l0 -155 65 0 65 0 0 90 0 90 60 0 60 0 0 65 0 65 -125 0 -125 0 0 -155z"/>
 </g>

</svg>