<!DOCTYPE svg PUBLIC "-//W3C//DTD SVG 20010904//EN" "http://www.w3.org/TR/2001/REC-SVG-20010904/DTD/svg10.dtd">
<svg version="1.0" xmlns="http://www.w3.org/2000/svg" width="78px" height="55px" viewBox="0 0 780 550" preserveAspectRatio="xMidYMid meet">
<g id="layer1" fill="#ffffff" stroke="none">
 <path d="M53 531 c-45 -28 -56 -88 -51 -286 6 -250 -11 -239 363 -243 322 -3 370 3 395 53 11 22 16 74 18 205 4 202 -3 241 -51 270 -30 19 -52 20 -337 20 -284 0 -307 -1 -337 -19z m376 -204 l83 -49 -93 -55 c-52 -30 -100 -57 -106 -60 -10 -4 -13 23 -13 116 l0 122 23 -12 c12 -7 60 -35 106 -62z"/>
 </g>

</svg>