<!DOCTYPE svg PUBLIC "-//W3C//DTD SVG 20010904//EN" "http://www.w3.org/TR/2001/REC-SVG-20010904/DTD/svg10.dtd">
<svg version="1.0" xmlns="http://www.w3.org/2000/svg" width="79px" height="64px" viewBox="0 0 790 640" preserveAspectRatio="xMidYMid meet">
<g id="layer1" fill="#ffffff" stroke="none">
 <path d="M135 626 c-77 -13 -135 -39 -135 -60 0 -9 19 -15 57 -19 32 -2 77 -13 101 -22 l42 -17 -38 -19 c-53 -27 -105 -100 -81 -115 7 -4 -2 -19 -21 -39 -37 -38 -53 -110 -27 -121 13 -5 13 -9 1 -32 -19 -36 -18 -112 2 -140 l15 -22 52 43 c70 58 95 73 166 97 87 29 101 27 101 -14 0 -37 31 -89 73 -120 40 -30 140 -34 190 -7 35 18 42 18 79 5 22 -8 44 -14 49 -14 13 0 11 34 -3 49 -11 11 -9 13 10 8 34 -8 28 23 -12 62 -29 28 -34 41 -39 95 -13 134 -91 265 -204 342 -90 62 -239 85 -378 60z"/>
 </g>

</svg>